<svg xmlns="http://www.w3.org/2000/svg" xmlns:xlink="http://www.w3.org/1999/xlink" width="231" height="56" viewBox="0 0 231 56">
  <defs>
    <polygon id="vector-svg@1x-a" points=".792 .539 24.218 .539 24.218 17 .792 17"/>
    <polygon id="vector-svg@1x-c" points="0 0 1.104 0 1.104 1.319 0 1.319"/>
    <polygon id="vector-svg@1x-e" points=".306 0 1.701 0 1.701 1.319 .306 1.319"/>
  </defs>
  <g fill="none" fill-rule="evenodd">
    <path fill="#FF595A" d="M58.9056,24.8268 C61.2136,24.8268 62.8236,26.6888 62.8236,28.9008 C62.8236,31.1308 61.2136,32.9738 58.9056,32.9738 C56.5976,32.9738 54.9686,31.1308 54.9686,28.9008 C54.9686,26.6508 56.5976,24.8268 58.9056,24.8268 M58.8666,35.8828 C62.7856,35.8828 65.9666,32.9348 65.9666,28.9008 C65.9666,24.8668 62.9596,21.9178 58.9456,21.9178 C55.0456,21.9178 51.8266,24.8848 51.8266,28.9008 C51.8266,32.9538 54.8716,35.8828 58.8666,35.8828"/>
    <polygon fill="#FF595A" points="75.968 32.993 70.732 32.993 70.732 22.111 67.609 22.111 67.609 35.688 75.968 35.688"/>
    <polygon fill="#FF595A" points="85.818 32.993 80.732 32.993 80.732 22.111 77.61 22.111 77.61 35.688 84.805 35.688"/>
    <path fill="#FF595A" d="M43.5126 22.1115L39.0736 22.1115 39.0736 35.6885 43.5126 35.6885C47.8296 35.6885 50.5956 32.8605 50.5956 28.9015 50.5956 24.9225 47.8296 22.1115 43.5126 22.1115M43.3536 32.8035L42.1166 32.8035 42.1166 24.9965 43.3536 24.9965C46.0986 24.9965 47.7106 26.5735 47.7106 28.9015 47.7106 31.2095 46.0986 32.8035 43.3536 32.8035M106.2079 28.3146L104.1439 28.3146 104.1439 24.8466 106.2079 24.8466C107.5719 24.8466 108.2519 25.5486 108.2519 26.5696 108.2519 27.5926 107.5719 28.3146 106.2079 28.3146L106.2079 28.3146zM108.1199 30.2776C109.9429 29.7146 111.1849 28.2406 111.1849 26.3006 111.1849 23.9156 109.5939 22.1116 106.4909 22.1116L101.0609 22.1116 101.0609 35.6886 104.1439 35.6886 104.1439 30.6076 104.9189 30.6076 108.7219 35.6886 112.4839 35.6886 108.1199 30.2776zM91.2836 30.4523L93.0816 24.9403 94.8906 30.4523 91.2836 30.4523zM91.5306 22.1113L86.4516 35.6883 89.5756 35.6883 90.5116 32.8183 95.6676 32.8183 96.6096 35.6883 99.8286 35.6883 94.7696 22.1113 91.5306 22.1113z"/>
    <polygon fill="#FF595A" points="133.505 30.103 138.525 30.103 138.525 35.689 141.649 35.689 141.649 22.112 138.525 22.112 138.525 27.408 133.505 27.408 133.505 22.112 130.382 22.112 130.382 35.689 133.505 35.689"/>
    <polygon fill="#FF595A" points="161.19 32.275 157.663 22.112 154.443 22.112 159.503 35.689 162.741 35.689 167.82 22.112 164.697 22.112"/>
    <path fill="#FF595A" d="M147.7118,30.4523 L149.5098,24.9403 L151.3188,30.4523 L147.7118,30.4523 Z M156.2568,35.6883 L151.1968,22.1113 L147.9588,22.1113 L142.8798,35.6883 L146.0028,35.6883 L146.9398,32.8183 L152.0958,32.8183 L153.0368,35.6883 L156.2568,35.6883 Z"/>
    <polygon fill="#FF595A" points="172.175 30.065 177.063 30.065 177.063 27.485 172.175 27.485 172.175 24.75 177.702 24.75 177.702 22.112 169.052 22.112 169.052 35.689 177.761 35.689 177.761 33.071 172.175 33.071"/>
    <path fill="#FF595A" d="M125.3368,32.1008 C125.3368,32.8768 124.6198,33.3618 123.3588,33.3618 C122.2538,33.3618 120.9738,32.9348 118.9378,31.7128 L118.9378,34.6618 C120.1588,35.3788 121.6328,35.8828 123.3978,35.8828 C126.5018,35.8828 128.4598,34.1758 128.4598,31.7718 C128.4598,27.2518 121.7488,27.9508 121.7488,25.6808 C121.7488,25.0208 122.4278,24.5178 123.5338,24.5178 C124.6198,24.5178 125.9188,24.9248 127.6458,26.1078 L127.6458,23.0048 C126.7148,22.4418 125.3368,21.9178 123.5338,21.9178 C120.4498,21.9178 118.7238,23.6448 118.7238,25.9918 C118.7238,30.4918 125.3368,29.7928 125.3368,32.1008"/>
    <polygon fill="#FF595A" points="200.072 22.112 196.949 22.112 196.949 35.689 205.309 35.689 205.309 32.993 200.072 32.993"/>
    <path fill="#FF595A" d="M214.454 30.2199C214.454 32.0239 213.484 32.9159 212.069 32.9159 210.652 32.9159 209.663 32.0629 209.663 30.2199L209.663 22.1119 206.541 22.1119 206.541 30.3359C206.541 33.8089 208.635 35.8839 212.029 35.8839 215.54 35.8839 217.558 33.5559 217.558 30.3359L217.558 22.1119 214.454 22.1119 214.454 30.2199zM225.5546 33.3615L223.0466 33.3615 223.0466 29.9495 225.5336 29.9495C226.8286 29.9495 227.4656 30.6705 227.4656 31.6565 227.4656 32.6225 226.8696 33.3615 225.5546 33.3615L225.5546 33.3615zM223.0456 24.5945L225.3926 24.5945C226.6146 24.5945 227.2146 25.2745 227.2146 26.2045 227.2146 27.1165 226.6536 27.8145 225.4116 27.8145L223.0456 27.8145 223.0456 24.5945zM228.1656 28.6495C229.2916 28.0665 230.0286 27.0385 230.0286 25.6815 230.0286 23.7035 228.6506 22.1115 225.8766 22.1115L220.0206 22.1115 220.0206 35.6885 225.8766 35.6885C228.8066 35.6885 230.4146 34.0795 230.4146 31.8305 230.4146 30.3165 229.5036 29.1915 228.1656 28.6495L228.1656 28.6495zM184.9462 28.882C184.9462 32.861 187.7122 35.689 192.0282 35.689L194.4862 35.689 194.4862 32.804 192.3352 32.804C189.5892 32.804 188.0892 31.21 188.0892 28.882 188.0892 26.574 189.5892 24.996 192.3352 24.996L194.4862 24.996 194.4862 22.112 192.0282 22.112C187.7122 22.112 184.9462 24.923 184.9462 28.882"/>
    <path fill="#EFE0CA" d="M27.2176,7.6584 L27.2176,0.0004 L3.7916,0.0004 L3.7916,7.6584 C3.7916,15.1074 8.6716,19.8784 15.5016,19.8784 C22.3676,19.8784 27.2176,15.1074 27.2176,7.6584 M8.7686,7.3844 L8.7686,5.2504 L22.2396,5.2504 L22.2396,7.3844 C22.2396,12.1204 19.5186,14.9014 15.5016,14.9014 C11.5206,14.9014 8.7686,12.1204 8.7686,7.3844"/>
    <g transform="translate(3 39)">
      <mask id="vector-svg@1x-b" fill="#fff">
        <use xlink:href="#vector-svg@1x-a"/>
      </mask>
      <path fill="#EFE0CA" d="M12.536,0.5392 C5.67,0.5392 0.792,5.3102 0.792,12.7602 L0.792,17.0002 L5.769,17.0002 L5.769,13.2872 C5.769,8.5502 8.519,5.9612 12.536,5.9612 C16.517,5.9612 19.24,8.5502 19.24,13.2872 L19.24,17.0002 L24.218,17.0002 L24.218,12.7602 C24.218,5.3102 19.367,0.5392 12.536,0.5392" mask="url(#vector-svg@1x-b)"/>
    </g>
    <path fill="#EFE0CA" d="M9.9833,32.7209 C8.6443,32.7209 7.8083,31.4839 7.8083,29.3079 C7.8083,27.4009 8.5443,25.1909 10.6523,21.6779 L5.5663,21.6779 C4.3273,23.7859 3.4573,26.3289 3.4573,29.3739 C3.4573,34.7299 6.4023,38.1089 10.5513,38.1089 C18.3493,38.1089 17.1443,26.5299 21.0603,26.5299 C22.1983,26.5299 23.0673,27.7009 23.0673,29.6099 C23.0673,31.4839 22.3643,33.7249 20.3243,36.7039 L25.6783,36.7039 C26.6483,35.0969 27.5523,32.7209 27.5523,29.6099 C27.5523,24.2879 24.5733,21.3089 20.5253,21.3089 C12.7603,21.3089 13.9653,32.7209 9.9833,32.7209"/>
    <mask id="vector-svg@1x-d" fill="#fff">
      <use xlink:href="#vector-svg@1x-c"/>
    </mask>
    <polygon fill="#EFE0CA" points=".439 1.319 .439 .198 0 .198 0 0 1.104 0 1.104 .198 .665 .198 .665 1.319" mask="url(#vector-svg@1x-d)"/>
    <g transform="translate(1)">
      <mask id="vector-svg@1x-f" fill="#fff">
        <use xlink:href="#vector-svg@1x-e"/>
      </mask>
      <polygon fill="#EFE0CA" points=".523 1.319 .306 1.319 .306 0 .532 0 1.003 .663 1.476 0 1.701 0 1.701 1.319 1.48 1.319 1.481 .405 1.484 .328 1.431 .405 1.002 1.003 .572 .405 .519 .33 .521 .405" mask="url(#vector-svg@1x-f)"/>
    </g>
  </g>
</svg>
